<svg xmlns="http://www.w3.org/2000/svg" version="1.1" xmlns:xlink="http://www.w3.org/1999/xlink" width="512" height="512" x="0" y="0" viewBox="0 0 24 24" style="enable-background:new 0 0 512 512" xml:space="preserve"><g><path d="M23.707.293a1 1 0 0 0-1.414 0L12 10.586 1.707.293a1 1 0 0 0-1.414 0 1 1 0 0 0 0 1.414L10.586 12 .293 22.293a1 1 0 0 0 0 1.414 1 1 0 0 0 1.414 0L12 13.414l10.293 10.293a1 1 0 0 0 1.414 0 1 1 0 0 0 0-1.414L13.414 12 23.707 1.707a1 1 0 0 0 0-1.414Z" fill="#ffffff" opacity="1" data-original="#000000"></path></g></svg>